<svg xmlns="http://www.w3.org/2000/svg" width="18" height="20" viewBox="0 0 18 20">
    <g fill="#FFF">
        <path d="M8.996 8.276L16.818.209c.27-.279.709-.279.98 0 .27.28.27.731 0 1.01L9.485 9.791c-.27.279-.71.279-.98 0L.194 1.219C-.07.935-.064.483.211.21c.269-.267.694-.267.963 0l7.822 8.067z"/>
        <path fill-opacity=".5" d="M8.996 18.276l7.822-8.067c.27-.279.709-.279.98 0 .27.28.27.731 0 1.01l-8.312 8.572c-.27.279-.71.279-.98 0L.194 11.219c-.265-.284-.258-.736.017-1.01.269-.267.694-.267.963 0l7.822 8.067z"/>
    </g>
</svg>
