<svg xmlns="http://www.w3.org/2000/svg" width="36" height="36" viewBox="0 0 36 36">
    <g fill="none" fill-rule="evenodd">
        <g>
            <g>
                <g>
                    <g>
                        <path fill="#285396" d="M36 18c0 9.941-8.06 18-18 18-9.941 0-18-8.059-18-18S8.059 0 18 0c9.94 0 18 8.059 18 18" transform="translate(-1514 -6959) translate(0 6952) translate(1514 7)"/>
                        <path fill="#FEFEFE" d="M15.21 23.816c0-1.676-.006-3.352.006-5.027.002-.283-.078-.371-.36-.36-.522.022-1.046-.002-1.569.01-.211.006-.29-.053-.287-.277.01-1.046.01-2.092.001-3.138-.002-.2.059-.267.262-.262.535.012 1.07-.015 1.604.011.31.015.373-.095.367-.382-.019-.795-.019-1.592-.001-2.388.02-.972.282-1.88.86-2.67.733-1 1.775-1.458 2.976-1.512 1.235-.054 2.472-.024 3.707-.037.173-.002.224.06.223.227-.005 1.057-.006 2.115.001 3.173.002.188-.06.245-.244.242-.595-.009-1.19-.004-1.783-.003-.79.003-1.264.41-1.314 1.193-.04.627-.01 1.259-.025 1.888-.006.225.128.21.276.209.903-.001 1.806.009 2.71-.007.265-.004.352.057.322.336-.114 1.05-.212 2.103-.302 3.157-.02.237-.129.283-.342.28-.713-.012-1.426-.008-2.139-.004-.512.003-.462-.075-.462.447-.002 3.28-.007 6.56.007 9.84.002.346-.087.432-.43.426-1.223-.022-2.448-.023-3.671 0-.345.008-.402-.11-.4-.417.014-1.652.007-3.303.007-4.955" transform="translate(-1514 -6959) translate(0 6952) translate(1514 7)"/>
                    </g>
                </g>
            </g>
        </g>
    </g>
</svg>
