<svg xmlns="http://www.w3.org/2000/svg" width="24" height="34" viewBox="0 0 24 34">
    <g fill="none" fill-rule="evenodd">
        <g fill="#FFF" fill-rule="nonzero">
            <g>
                <g>
                    <path d="M12 0C5.41 0 .048 5.446.048 12.14v9.666C.048 28.499 5.41 33.945 12 33.945s11.952-5.43 11.952-12.102v-9.704C23.952 5.446 18.59 0 12 0zm9.704 21.843c0 5.433-4.353 9.854-9.704 9.854-5.35 0-9.704-4.437-9.704-9.891v-9.667c0-5.454 4.353-9.891 9.704-9.891 5.351 0 9.704 4.437 9.704 9.891v9.704z" transform="translate(-948 -986) translate(370 320) translate(578 666)"/>
                    <path d="M12 9.292c-.62 0-1.124.503-1.124 1.124v3.934c0 .62.503 1.124 1.124 1.124.62 0 1.124-.503 1.124-1.124v-3.934c0-.621-.503-1.124-1.124-1.124z" transform="translate(-948 -986) translate(370 320) translate(578 666)"/>
                </g>
            </g>
        </g>
    </g>
</svg>
