<svg xmlns="http://www.w3.org/2000/svg" id="logo" width="251" height="43.908" viewBox="0 0 251 43.908">
    <defs>
        <style>
            .cls-1{fill:#042275}.cls-2{fill:#ea5550}
        </style>
    </defs>
    <g id="그룹_311" transform="translate(120.394 14.713)">
        <path id="패스_243" d="M295.894 442.3v-3.748l-14.877.906v-4.045l7.7-.513v-1.766l-8.824.564v-4.115l15.858-1.031v-3.381h-14.417v-4.141h19.46v7.2l1.836-.121v4.1l-8.824.589v1.766l7.134-.468v8.211h-5.046z" class="cls-1" transform="translate(-279.89 -413.262)"/>
        <path id="패스_244" d="M348.723 442.372v-9.534l-2.007.221v1.962a7.374 7.374 0 0 1-.453 2.621 5.87 5.87 0 0 1-1.333 2.083 6.036 6.036 0 0 1-2.184 1.373 8.422 8.422 0 0 1-2.988.488 8.536 8.536 0 0 1-2.988-.488 6.079 6.079 0 0 1-2.183-1.373 5.8 5.8 0 0 1-1.333-2.083 7.374 7.374 0 0 1-.453-2.621v-7.5a7.373 7.373 0 0 1 .453-2.621 5.87 5.87 0 0 1 1.333-2.083 6.123 6.123 0 0 1 2.183-1.384 9.128 9.128 0 0 1 5.977 0 6.24 6.24 0 0 1 2.184 1.384 5.8 5.8 0 0 1 1.333 2.083 7.373 7.373 0 0 1 .453 2.621v.538l2.007-.221v-6.888h5.051v20.441zm-7.033-14.655a2.437 2.437 0 0 0-.538-1.665 1.9 1.9 0 0 0-2.8 0 2.445 2.445 0 0 0-.538 1.665v7.109a2.4 2.4 0 0 0 .538 1.655 1.78 1.78 0 0 0 1.4.6 1.8 1.8 0 0 0 1.4-.6 2.4 2.4 0 0 0 .538-1.655z" class="cls-1" transform="translate(-306.181 -413.212)"/>
        <path id="패스_245" d="M447.806 431.787v-1.273l-2.158.247v.81l-13.408 1.4v-11.89h13.408v.785l2.158-.247v-.639h5.051v10.293zm-9.021 10.636a7 7 0 0 1-2.254-.342 5.228 5.228 0 0 1-1.726-.966 4.129 4.129 0 0 1-1.1-1.494 4.836 4.836 0 0 1-.382-1.947 4.508 4.508 0 0 1 .392-1.922 4.143 4.143 0 0 1 1.1-1.444 5.384 5.384 0 0 1 1.716-.956 8.857 8.857 0 0 1 2.254-.453l9.046-.664a6.007 6.007 0 0 1 2.269.221 4.387 4.387 0 0 1 1.726.981 4.467 4.467 0 0 1 1.1 1.655 6.067 6.067 0 0 1 .392 2.244 5.556 5.556 0 0 1-.382 2.118 4.321 4.321 0 0 1-1.1 1.6 4.937 4.937 0 0 1-1.741 1.016 6.859 6.859 0 0 1-2.269.357h-9.041zm1.841-17.282h-3.356v3.089l3.356-.342zm-.91 11.859a6.575 6.575 0 0 0-1.031.171c-.312.081-.458.252-.443.513a.376.376 0 0 0 .136.307.839.839 0 0 0 .357.161 2.108 2.108 0 0 0 .488.05h.538l7.159-.392a4.85 4.85 0 0 0 1.006-.146.5.5 0 0 0 .443-.538.551.551 0 0 0-.478-.528 3.02 3.02 0 0 0-1.016-.06zm8.09-11.345l-2.158.221v.835l2.158-.221z" class="cls-1" transform="translate(-355.592 -413.237)"/>
        <path id="패스_246" d="M489.569 437.4a2.015 2.015 0 0 1 .322 1.1 2.565 2.565 0 0 1-.312 1.273 2.751 2.751 0 0 1-.845.926 3.992 3.992 0 0 1-1.238.569 5.448 5.448 0 0 1-1.469.191h-.7a5.628 5.628 0 0 1-1.469-.191 3.977 3.977 0 0 1-1.238-.558 2.706 2.706 0 0 1-.845-.926 2.6 2.6 0 0 1-.312-1.278 1.964 1.964 0 0 1 .3-1.1h-.88v-2.38h9.609v2.38h-.921zm1.439 9.021v-2.415l-9.207.719v-2.636l12.5-1.117v5.454h-3.3zm-8.216-11.752v-2.43h5.851v2.43zm3.1 4.317a1.173 1.173 0 0 0 .719-.2.66.66 0 0 0 .272-.569.675.675 0 0 0-.272-.574 1.142 1.142 0 0 0-.719-.206h-.448a1.174 1.174 0 0 0-.719.206.688.688 0 0 0-.272.574.666.666 0 0 0 .272.569 1.207 1.207 0 0 0 .719.2zm5.117 1.887v-8.346h3.3v3.18l1.7-.191v3.26l-1.7.191v1.6z" class="cls-1" transform="translate(-379.761 -418.832)"/>
        <path id="패스_247" d="M519.668 442.877v-2.108l2.636-.206v-.463l-3.979.322v1.68l-3.134.221v-1.645l-3.371.272v-2.415l10.49-.845v-5.242h3.3v9.911zm-3.3-5.132a6.071 6.071 0 0 1-1.63-.206 4.056 4.056 0 0 1-1.253-.574 2.693 2.693 0 0 1-.81-.9 2.519 2.519 0 0 1 0-2.334 2.64 2.64 0 0 1 .81-.9 3.994 3.994 0 0 1 1.253-.574 5.875 5.875 0 0 1 1.63-.206h1.313a6.011 6.011 0 0 1 1.615.206 4.175 4.175 0 0 1 1.253.574 2.624 2.624 0 0 1 .8.9 2.519 2.519 0 0 1 0 2.334 2.676 2.676 0 0 1-.8.9 4 4 0 0 1-1.253.574 5.841 5.841 0 0 1-1.615.206zm-3.039 8.316v-3.326l3.275-.206v1.2l9.131-.719v3.054zm4.03-10.5a1.477 1.477 0 0 0 .709-.161.541.541 0 0 0 0-.966 1.423 1.423 0 0 0-.709-.166h-.689a1.39 1.39 0 0 0-.7.166.518.518 0 0 0-.287.473.527.527 0 0 0 .287.493 1.443 1.443 0 0 0 .7.161z" class="cls-1" transform="translate(-395.135 -418.743)"/>
        <path id="패스_248" d="M412.195 420.97v2.8l-2.108.242v4.342l2.108-.247v.785l-2.355.267v4.341l2.355-.272v.538l5.051-.463V420.97z" class="cls-2" transform="translate(-344.462 -413.232)"/>
        <path id="패스_249" d="M386.46 452.451l14.117-1.1v3.7h5.051v-8.361l-19.168 1.716z" class="cls-2" transform="translate(-332.844 -426.012)"/>
        <path id="패스_250" d="M395.925 416.06h-6.385l.558-.216a5.189 5.189 0 0 0 3.371-4.02c.357-2.485-1.489-6.233-1.489-6.233a5.775 5.775 0 0 1-2.918 3.985 5.181 5.181 0 0 0-3 3.195 4.244 4.244 0 0 0 .694 3.28h-4.576v4.049h1.348a3.62 3.62 0 0 0-.468 1.877 4.818 4.818 0 0 0 .478 2.178 4.467 4.467 0 0 0 1.3 1.58 5.92 5.92 0 0 0 1.9.951 7.777 7.777 0 0 0 2.254.327h.589a7.777 7.777 0 0 0 2.254-.327 5.752 5.752 0 0 0 1.9-.966 4.6 4.6 0 0 0 1.3-1.58 4.724 4.724 0 0 0 .478-2.163 3.7 3.7 0 0 0-.488-1.877h.906v-4.04zm-5.439 6.41a1.687 1.687 0 0 1-1.1.342h-.2a1.66 1.66 0 0 1-1.1-.342 1.179 1.179 0 0 1-.418-.966 1.223 1.223 0 0 1 .418-.981 1.637 1.637 0 0 1 1.1-.352h.2a1.663 1.663 0 0 1 1.1.352 1.223 1.223 0 0 1 .418.981 1.179 1.179 0 0 1-.418.965z" class="cls-2" transform="translate(-330.717 -405.59)"/>
    </g>
    <g id="그룹_312">
        <path id="패스_251" fill="none" d="M169.177 446.72a6.34 6.34 0 0 0 2.39.689A6.722 6.722 0 0 0 174 447.2a5.966 5.966 0 0 0 2.178-1.147 6.328 6.328 0 0 0 2.244-4.322 5.364 5.364 0 0 0-.337-2.38 6.17 6.17 0 0 0-1.2-2.173 6.4 6.4 0 0 0-1.937-1.56 6.646 6.646 0 0 0-2.49-.745 6.134 6.134 0 0 0-2.45.257 5.491 5.491 0 0 0-2.163 1.1 6.219 6.219 0 0 0-1.555 1.937 5.841 5.841 0 0 0-.377 4.825 6.481 6.481 0 0 0 3.264 3.728z" transform="translate(-110.636 -405.413)"/>
        <path id="패스_252" d="M81.792 438.53A14.021 14.021 0 0 1 83 432.759a16.325 16.325 0 0 1 3.21-4.739.879.879 0 0 1 .075-.065v-7.185H56.39v9.187h20.1v12.366h5.786a14.765 14.765 0 0 1-.484-3.793z" class="cls-1" transform="translate(-56.39 -398.42)"/>
        <path id="패스_253" fill="#008965" d="M130.576 445.155a15.332 15.332 0 0 1-1.756-3.723 14.667 14.667 0 0 1-.694-5.625 14.266 14.266 0 0 1 1.6-5.625c.176-.337.367-.664.563-.981a15.591 15.591 0 0 0-2.737-1.539 14.464 14.464 0 0 0-5.8-1.182 14.291 14.291 0 0 0-5.776 1.182 15.448 15.448 0 0 0-4.629 3.124.881.881 0 0 1-.075.065 16.324 16.324 0 0 0-3.21 4.739 14.022 14.022 0 0 0-1.207 5.771 14.7 14.7 0 0 0 .483 3.788h9.534a6.079 6.079 0 0 1-.73-1.3 6.486 6.486 0 0 1-.473-2.485 6.235 6.235 0 0 1 .478-2.375 6.17 6.17 0 0 1 1.338-2.022 5.266 5.266 0 0 1 1.9-1.353 6.173 6.173 0 0 1 4.739 0 5.8 5.8 0 0 1 1.962 1.363 6.522 6.522 0 0 1 1.278 2.007 6.509 6.509 0 0 1-.7 6.163h3.909z" transform="translate(-81.468 -401.258)"/>
        <path id="패스_254" d="M203.368 429.1a16.032 16.032 0 0 1 1.228 2.772 15.244 15.244 0 0 1 .654 5.579 14.123 14.123 0 0 1-1.595 5.6 14.363 14.363 0 0 1-.795 1.348h7.778v-9.79H224.2v9.79h8.165V424.96h-19.3l-3.758 7.23z" class="cls-1" transform="translate(-129.17 -400.502)"/>
        <path id="패스_255" fill="#999" d="M149.093 438.481a14.569 14.569 0 0 0 .694 5.625 15.522 15.522 0 0 0 1.756 3.723h5.69a14.486 14.486 0 0 0 .493-3.788 13.768 13.768 0 0 0-1.238-5.776 16.816 16.816 0 0 0-3.24-4.744 14.911 14.911 0 0 0-1.987-1.65c-.2.317-.387.644-.563.981a14.4 14.4 0 0 0-1.605 5.629z" transform="translate(-102.435 -403.936)"/>
        <path id="패스_256" d="M189.02 390.767c2.8-4.144 2.656-12.447 2.656-12.447s-3.376 4.71-8.794 4.607c-2.329-.041-5.972.432-8.261 3.13-1.942 2.285-1.635 4.6-1.534 7.371l-10.525-5.6-4.035 7.943 5.957 3.166a14.426 14.426 0 0 0-2.938.618 14.687 14.687 0 0 0-5 2.7 14.156 14.156 0 0 0-3.109 3.624 15 15 0 0 1 1.987 1.688 17.227 17.227 0 0 1 3.24 4.854 14.364 14.364 0 0 1 1.238 5.909 15.174 15.174 0 0 1-.493 3.876H178.3c.287-.443.548-.9.795-1.379a14.68 14.68 0 0 0 1.595-5.734 15.951 15.951 0 0 0-.654-5.709 16.6 16.6 0 0 0-1.228-2.836l5.937 3.155 3.758-7.4.277-.546-13.262-7.052 3.849.314c-.002.02 6.176.881 9.653-4.252zm-16.623 23.7a6.472 6.472 0 0 1-.689 2.44 6.339 6.339 0 0 1-1.555 1.982 5.957 5.957 0 0 1-2.178 1.174 6.569 6.569 0 0 1-2.435.216 6.447 6.447 0 0 1-2.39-.705 6.592 6.592 0 0 1-3.265-3.809 6.1 6.1 0 0 1 .377-4.936 6.4 6.4 0 0 1 1.555-1.982 5.414 5.414 0 0 1 2.163-1.127 6.073 6.073 0 0 1 2.45-.263 6.56 6.56 0 0 1 2.49.762 6.428 6.428 0 0 1 1.937 1.6 6.312 6.312 0 0 1 1.2 2.224 5.5 5.5 0 0 1 .343 2.428z" class="cls-2" transform="translate(-104.614 -378.32)"/>
    </g>
</svg>
